<svg id="Layer_1" data-name="Layer 1" xmlns="http://www.w3.org/2000/svg" viewBox="0 0 710 710"><defs><style>.cls-1{fill:none;stroke:#000;stroke-miterlimit:10;stroke-width:35px;}</style></defs><title>crossLogoBlack</title><path d="M1036.78,163A94.33,94.33,0,0,1,1131,257.22V708.78A94.33,94.33,0,0,1,1036.78,803H585.22A94.33,94.33,0,0,1,491,708.78V257.22A94.33,94.33,0,0,1,585.22,163h451.56m0-35H585.22A129.22,129.22,0,0,0,456,257.22V708.78A129.22,129.22,0,0,0,585.22,838h451.56A129.22,129.22,0,0,0,1166,708.78V257.22A129.22,129.22,0,0,0,1036.78,128Z" transform="translate(-456 -128)"/><line class="cls-1" x1="236.5" y1="0.5" x2="236.5" y2="687"/><line class="cls-1" x1="6" y1="236.5" x2="705" y2="236.5"/><line class="cls-1" x1="468.5" y1="0.5" x2="468.5" y2="687"/><line class="cls-1" x1="6" y1="473.5" x2="705" y2="473.5"/><path d="M508.55,361.35l149.12-5c11.38-.38,21.79-5.86,27.63-15.85,6.22-10.63,4.9-21.61,0-32.3q-.75-1.58-1.41-3.18l3.23,7.64a79.83,79.83,0,0,1-4.74-18.31l1.14,8.5c-1.34-11.1-.74-22.19.73-33.25l-1.14,8.51c3.61-25.54,11.35-50.68,11.33-76.67,0-7.88-.56-16.61-2.43-24.19a36.51,36.51,0,0,0-35.29-27.54c-12.38-.13-25.05,1.64-37.4,2.47s-24.43,1.46-36.61,2.55c-13.46,1.21-27.23,2.78-39.9,7.72-25,9.78-44.93,28.11-57.66,51.82-11.87,22.09-17.77,46.68-22.07,71.21-2.31,13.19-1.73,24.68,6.74,35.64,8.22,10.64,20,13.88,32.94,14.53,12.37.63,24.78.7,37.16.33a536.41,536.41,0,0,0,80.43-8.7c18.2-3.33,33.22-16.39,36.15-35.16,2.18-14,2.63-28.33,3.66-42.45.61-8.48,1.12-16.95-1.84-25.14-5.21-14.38-15.92-24-30.55-28.34-17.36-5.16-35.68-1.36-51.58,6.28-25.88,12.43-40.3,38.42-51.38,63.52-3.6,8.14-5.69,15.72-3.23,24.66,2,7.42,7.78,15.46,14.71,19.12,7.42,3.92,16.42,5.89,24.66,3.23,7.41-2.4,15.83-7.26,19.12-14.71,5.17-11.71,10.47-23.39,18.13-33.73l-5,6.48a69.61,69.61,0,0,1,12.37-12.6l-6.47,5a59.88,59.88,0,0,1,10.81-6.36l-7.64,3.22A48.93,48.93,0,0,1,614.12,257l-8.51,1.14a43.15,43.15,0,0,1,9.16,0L606.26,257a31.3,31.3,0,0,1,7.32,2l-7.64-3.23a13.27,13.27,0,0,1,2.53,1.52l-6.47-5a9.68,9.68,0,0,1,2,2.1l-5-6.48.79,1.32-3.23-7.64a18,18,0,0,1,1.19,4.44l-1.14-8.51c.48,7.57-.73,15.39-1.27,22.94-.57,7.73-1,15.49-1.74,23.2l1.14-8.51a28.94,28.94,0,0,1-1.16,5.28l3.22-7.65a14.74,14.74,0,0,1-2,3.35l5-6.47-.94.91,6.48-5a9.92,9.92,0,0,1-2.37,1.45l7.64-3.23c-8.8,3.36-19.33,3.92-28.62,5.2l8.51-1.14c-15.52,2.07-31.11,3.45-46.76,4.05-14.92.56-30.73,1.42-45.57-.55l8.51,1.14-1.22-.3,7.64,3.22-1.12-.5,6.48,5-1-.75,5,6.47-.77-1.06,3.23,7.64a6.35,6.35,0,0,1-.64-2.54l1.14,8.51a14.38,14.38,0,0,1,.17-2.78l-1.15,8.51c3.15-18.49,7.08-37.19,14.19-54.6l-3.23,7.64a111.31,111.31,0,0,1,14.21-24.67l-5,6.47a85.59,85.59,0,0,1,14.16-14.12l-6.48,5a72.85,72.85,0,0,1,13.42-8l-7.65,3.23a96.33,96.33,0,0,1,24.09-6.29l-8.51,1.15c13.78-1.79,27.73-2.34,41.58-3.27L637.23,215c6.76-.46,14.32-1.94,21-1.06l-16.15-4.37,1.35.68-6.47-5,.88,1.1-8.23-14.12a21,21,0,0,1,1.07,4.65l-1.14-8.5a125.69,125.69,0,0,1-.5,31.84l1.15-8.5c-2.93,21.19-8.32,41.88-10.63,63.19a124.52,124.52,0,0,0-.29,26.25A119.13,119.13,0,0,0,630,340.53l27.63-48.15-149.12,5c-16.71.55-32.79,14.32-32,32,.76,16.86,14.08,32.59,32,32Z" transform="translate(-456 -128)"/><path d="M691.94,640.19q2.56,14.29,4.53,28.69l-1.14-8.51a672.55,672.55,0,0,1,6,92.66q0,10.65-.44,21.3c-.43,11.57-1.45,23,4.57,33.52,13,22.8,40.21,18.77,62.22,17.75,32.8-1.53,65.43-5,97.92-9.59q11.61-1.66,23.16-3.61c11.2-1.88,21.61-3.65,30-12.37,15.25-15.82,9.68-40.47,8.49-60.22q-3.12-52.23-6.25-104.46c-1-17.15-13.82-32.15-32-32L756.6,604.47c-21.69.19-35.23,20.23-30.85,40.51l28.7,133c1.44,6.68,6.24,12.59,11.47,16.62,5.05,3.91,12.78,7.72,19.39,6.87,23.33-3,46.55-6.59,69.56-11.49,4.81-1,9.77-1.86,14.48-3.26,12.84-3.8,23.46-12.81,27.32-26,4-13.57-1.25-27.85-4.47-41l-8-32.84c-3.1-12.69-4.81-27.78-12.94-38.3-7.65-9.9-17.94-14.38-30.16-15.42-5.27-.44-10.64-.18-15.93-.2-7,0-13.64-.15-20.61,1.2a38.27,38.27,0,0,0-25.4,18.28c-9,15.61-3.6,33.7-.88,50.28l5.92,36.22c1.21,7.43,8.48,15.48,14.7,19.12,6.86,4,17,5.71,24.66,3.23s15.22-7.31,19.13-14.71c4.25-8.06,4.69-15.71,3.22-24.66-3-18.23-6.18-36.43-8.93-54.7l1.15,8.51a27.67,27.67,0,0,1-.18-4.07l-1.14,8.51a8.68,8.68,0,0,1,.55-2.51l-3.23,7.64.58-1.12-5,6.48.82-1-6.48,5a6.49,6.49,0,0,1,2.37-1.44l-7.64,3.23a11.22,11.22,0,0,1,2.81-.57L813,697a209.75,209.75,0,0,1,28,.14L832.56,696a8.68,8.68,0,0,1,2.87.82l-7.65-3.23,1.22.85-6.48-5,1,1.14-5-6.47.68,1.32-3.23-7.64c4.35,12.75,6.65,26.53,9.84,39.62s7.25,26.17,9.5,39.4l-1.14-8.5a9.69,9.69,0,0,1,0,2.69l1.14-8.51-.33,1.25,3.23-7.64-.63,1.14,5-6.48-.87.9,6.48-5a7.85,7.85,0,0,1-2.23,1.19l7.65-3.23c-11.19,3.49-23.2,5.29-34.71,7.43q-18.07,3.36-36.31,5.81l8.51-1.14-5.76.75L816.17,761,787.46,628l-30.86,40.5L889,667.35l-32-32q2.13,35.49,4.25,71l2.06,34.49,1.06,17.74c.33,5.4,1.3,11.23.64,16.63l1.15-8.51-.33,1.18,3.22-7.64-.55,1,5-6.48-.82.88,6.48-5-1.08.62,7.64-3.23c-6.87,2.18-14.58,2.78-21.69,3.92q-11.57,1.85-23.19,3.41l8.51-1.15q-28.08,3.75-56.33,5.85-13.63,1-27.3,1.61c-9.27.42-18.9,1.32-28.16.69l8.51,1.15a7.25,7.25,0,0,1-2.57-.75l7.64,3.23-1.07-.79,11.48,11.48-.84-1.14,3.22,7.64a7.21,7.21,0,0,1-.73-2.77l1.14,8.5c-.44-13.17,1-26.55,1-39.76s-.42-26.46-1.23-39.66a745.23,745.23,0,0,0-10.49-86.32c-1.34-7.48-8.38-15.42-14.7-19.13-6.86-4-17-5.71-24.66-3.22s-15.21,7.3-19.12,14.7c-4.23,8-4.82,15.77-3.23,24.66Z" transform="translate(-456 -128)"/><path d="M928.17,409.27q4.13,17.52,6.6,35.33l-1.14-8.51a376.62,376.62,0,0,1,0,100l1.15-8.51c-1.22,8.77-3,17.4-4.53,26.1-1.42,7.86-2.14,14.88.21,22.74,3.46,11.56,12.53,20.05,23.85,23.79,9.74,3.21,22.54,1.34,32.72,1.09q13.37-.33,26.71-.9,53.91-2.32,107.54-8.62c8.37-1,16.6-2.81,22.63-9.37a33.7,33.7,0,0,0,9.37-22.63c.43-28.83-5.42-57.28-7.88-85.92a604.74,604.74,0,0,1-1.14-86.71c.93-16.23-15.46-33.43-32-32l-66.18,5.73-32.59,2.83c-9.5.82-18.73,1.25-27.18,6.25-12.25,7.25-17.48,19.74-18.53,33.4-1.66,21.82-1.29,44-1.13,65.9q.12,16.35.62,32.69c.38,12-.66,26.27,3,37.77C976.06,558,992.61,567,1010.45,570c12.42,2.06,24.6,3,37.13,1.69a306.53,306.53,0,0,0,38.21-6.42c4.45-1,9-1.94,13.34-3.39,14.92-5,26.35-18.34,26.12-34.63-.18-12.32-3-24.93-4.83-37.11q-2.37-15.89-5.26-31.7c-3.88-21.18-6.52-45.11-20.07-62.64-6.28-8.13-14-15.11-24-18.2-14.61-4.47-26.92.55-38.13,9.78-11,9-18.11,21.32-23.29,34.34-5.52,13.83-5.69,28.6-3.5,43.1,1.65,10.94,5.57,21.37,7.08,32.33l-1.14-8.51a50.2,50.2,0,0,1,0,11.94c-1,7.51,4.28,17.54,9.37,22.62,5.55,5.55,14.66,9.73,22.63,9.38,8.27-.37,16.86-3.09,22.63-9.38l5-6.47a31.93,31.93,0,0,0,4.37-16.15c2.37-18.13-5.66-35.18-8.17-52.77l1.14,8.51a56.77,56.77,0,0,1-.07-12.7l-1.14,8.5a57.56,57.56,0,0,1,3.56-13.39l-3.23,7.65a58.3,58.3,0,0,1,7-12l-5,6.48a55.62,55.62,0,0,1,8.7-8.72l-6.47,5a10.3,10.3,0,0,1,2.18-1.38l-7.64,3.23,1.22-.34-8.5,1.15,1.52.1-8.5-1.14,1.46.54-7.65-3.22a17.43,17.43,0,0,1,2.53,1.65l-6.48-5a31,31,0,0,1,4.9,5.08l-5-6.48a43.07,43.07,0,0,1,4.16,7.52l-3.22-7.64c5.35,13.3,7.23,28.29,9.82,42.32q4.42,23.94,7.67,48.08l-1.14-8.51c.62,4.66,1.59,9.44,1.63,14.14l1.14-8.51-.21,1.22,3.23-7.65-.53,1.11,5-6.48-.84.85,6.48-5-1,.6,7.65-3.22c-11.7,4.28-25.17,6.26-37.46,8l8.51-1.14a125.57,125.57,0,0,1-31.47.53l8.5,1.14a72.44,72.44,0,0,1-15.44-3.65l7.65,3.22a13.06,13.06,0,0,1-2.54-1.39l6.48,5a7.61,7.61,0,0,1-2-2l5,6.47-.64-1.22,3.23,7.64a10.93,10.93,0,0,1-.67-2.69l1.14,8.51c-2.12-20.85-1.74-42.3-1.83-63.24q-.06-15.85.23-31.7c.2-10.48-.18-21.33,1.12-31.73l-1.14,8.51.36-1.44-3.23,7.65.6-1.31-5,6.48.91-1.11-6.48,5,1.25-.83-7.65,3.22a9.71,9.71,0,0,1,2.94-.79l-8.51,1.14c35.34-3.7,70.84-6.16,106.24-9.23l-32-32a606.2,606.2,0,0,0,1.14,86.71c2.45,28.64,8.31,57.09,7.88,85.92l32-32q-39.33,4.59-78.87,7.1c-26,1.63-52.37,3.47-78.4,2.76l8.51,1.14-1.19-.29,7.64,3.23-.89-.6,11.48,11.48-.61-.84,3.22,7.65a5.54,5.54,0,0,1-.53-2.16l1.14,8.51a12.14,12.14,0,0,1,.12-2.41l-1.15,8.5c5.3-29.72,9.56-59.27,9.25-89.54a412.64,412.64,0,0,0-11.12-90.05C986,376,966.54,364.72,950.52,369.91c-17,5.5-26.47,21.89-22.35,39.36Z" transform="translate(-456 -128)"/></svg>